<svg width="60" height="60" viewBox="0 0 60 60" fill="none" xmlns="http://www.w3.org/2000/svg">
<path d="M58.2912 22.978C56.8972 17.1539 53.7519 11.897 49.279 7.91505C44.8061 3.93312 39.2204 1.4175 33.2742 0.706976C27.3279 -0.00354987 21.3068 1.12515 16.0216 3.94106C10.7364 6.75698 6.44108 11.1249 3.71406 16.4565C0.987028 21.788 -0.0407366 27.8273 0.769253 33.7608C1.57924 39.6943 4.18804 45.2371 8.2443 49.6427C12.3006 54.0483 17.6095 57.1051 23.456 58.4014C29.3026 59.6977 35.406 59.1712 40.9442 56.893C41.7478 56.5442 42.6472 56.4838 43.4902 56.722L51.7362 59.078C52.1474 59.2119 52.5767 59.2824 53.0092 59.287C53.6464 59.2839 54.2751 59.1408 54.851 58.868C55.4268 58.5952 55.9357 58.1992 56.3417 57.7081C56.7477 57.2169 57.0408 56.6426 57.2004 56.0257C57.36 55.4088 57.3821 54.7644 57.2652 54.138L55.5362 45.303C55.4189 44.4891 55.5583 43.6588 55.9352 42.928C59.0647 36.7687 59.8999 29.6968 58.2912 22.978ZM52.8952 41.484C52.163 42.8776 51.9157 44.4752 52.1922 46.025L53.8642 54.898C53.8907 55.0546 53.8766 55.2154 53.8234 55.365C53.7702 55.5147 53.6796 55.6482 53.5602 55.753C53.4441 55.8653 53.2998 55.9441 53.1426 55.9809C52.9853 56.0177 52.821 56.0111 52.6672 55.962L44.4972 53.378C43.8828 53.1815 43.2422 53.079 42.5972 53.074C41.606 53.0861 40.626 53.286 39.7092 53.663C34.0927 55.9557 27.8493 56.2023 22.0694 54.3598C16.2895 52.5174 11.3407 48.7029 8.08728 43.5826C4.83386 38.4624 3.48269 32.3619 4.26977 26.3468C5.05685 20.3316 7.93213 14.7842 12.3934 10.6734C16.8547 6.56265 22.6184 4.14988 28.6778 3.85655C34.7371 3.56322 40.7069 5.40797 45.5444 9.06858C50.3819 12.7292 53.7796 17.973 55.144 23.884C56.5084 29.795 55.7529 35.9974 53.0092 41.408L52.8952 41.484Z" fill="#4D4D4F"/>
</svg>
