<svg width="20" height="19" viewBox="0 0 20 19" fill="none" xmlns="http://www.w3.org/2000/svg">
<path fill-rule="evenodd" clip-rule="evenodd" d="M18.6258 18.3153C18.7916 18.1512 18.7921 17.8835 18.6269 17.7188L14.8951 13.9984C16.166 12.5845 16.9445 10.7259 16.9445 8.67858C16.9445 4.2776 13.3633 0.707314 8.94891 0.707314C4.53449 0.707314 0.953308 4.2776 0.953308 8.67858C0.953308 13.0796 4.53449 16.6498 8.94891 16.6498C11.0109 16.6498 12.8794 15.8653 14.2975 14.5899L18.0332 18.3142C18.1969 18.4774 18.4616 18.4779 18.6258 18.3153ZM1.79495 8.67858C1.79495 4.74749 5.00581 1.54639 8.94891 1.54639C12.892 1.54639 16.1029 4.74749 16.1029 8.67858C16.1029 12.6097 12.892 15.8108 8.94891 15.8108C5.00581 15.8108 1.79495 12.6097 1.79495 8.67858Z" fill="#333333" stroke="#333333" stroke-width="0.852466" stroke-linecap="round" stroke-linejoin="round"/>
</svg>
