<svg width="19" height="19" viewBox="0 0 19 19" fill="none" xmlns="http://www.w3.org/2000/svg">
<path fill-rule="evenodd" clip-rule="evenodd" d="M6.38911 2.26829L8.69646 5.15248L8.58061 5.21684H12.4139L10.055 2.26829H6.38911ZM17.0447 5.21684H14.2175L14.3334 5.15248L12.026 2.26829H14.2696C15.8023 2.26829 17.0447 3.51073 17.0447 5.04336V5.21684ZM6.77695 5.21684L4.43089 2.28426C3.03909 2.43358 1.95526 3.6119 1.95526 5.04336V5.21684H6.77695ZM1.95526 14.5827V6.77782H17.0447V14.5827C17.0447 16.1153 15.8023 17.3577 14.2696 17.3577H4.73033C3.1977 17.3577 1.95526 16.1153 1.95526 14.5827ZM4.73033 0.707314C2.3356 0.707314 0.394287 2.64863 0.394287 5.04336V14.5827C0.394287 16.9774 2.3356 18.9187 4.73033 18.9187H14.2696C16.6644 18.9187 18.6057 16.9774 18.6057 14.5827V5.04336C18.6057 2.64863 16.6644 0.707314 14.2696 0.707314H4.73033ZM12.3184 11.9229C12.6074 11.756 12.6074 11.3388 12.3184 11.1719L7.76553 8.54333C7.47646 8.37644 7.11512 8.58506 7.11512 8.91884L7.11512 14.176C7.11512 14.5098 7.47646 14.7184 7.76553 14.5515L12.3184 11.9229Z" fill="#333333"/>
</svg>
