<svg width="52" height="59" viewBox="0 0 52 59" fill="none" xmlns="http://www.w3.org/2000/svg">
<path d="M46.261 0.500035H5.46805C4.79028 0.497534 4.11865 0.628853 3.49174 0.886494C2.86484 1.14414 2.29501 1.52302 1.81487 2.0014C1.33472 2.47978 0.953705 3.04824 0.693756 3.67419C0.433807 4.30014 0.300044 4.97124 0.300049 5.64902V54.536C0.307355 55.2511 0.516268 55.9495 0.902786 56.5512C1.2893 57.1528 1.83773 57.6332 2.48504 57.937C2.98016 58.1626 3.51792 58.2792 4.06201 58.279C4.95226 58.2754 5.81297 57.9594 6.49401 57.386L25.855 40.78L45.235 57.386C45.7862 57.8278 46.4495 58.1073 47.1506 58.193C47.8517 58.2787 48.5629 58.1673 49.2042 57.8713C49.8455 57.5753 50.3916 57.1064 50.7813 56.5173C51.1709 55.9281 51.3887 55.242 51.41 54.536V5.64902C51.41 4.28342 50.8675 2.97375 49.9019 2.00813C48.9363 1.0425 47.6266 0.500035 46.261 0.500035ZM48.37 54.536C48.3701 54.6701 48.3328 54.8016 48.2623 54.9157C48.1918 55.0298 48.091 55.122 47.971 55.182C47.847 55.2388 47.709 55.2583 47.5741 55.2381C47.4391 55.2178 47.3129 55.1587 47.211 55.068L26.8431 37.626C26.575 37.4069 26.2393 37.2871 25.8931 37.2871C25.5468 37.2871 25.2111 37.4069 24.9431 37.626L4.59401 55.068C4.49257 55.161 4.36606 55.2223 4.23016 55.244C4.09427 55.2658 3.95499 55.2472 3.82956 55.1906C3.70412 55.1339 3.59807 55.0417 3.52456 54.9254C3.45106 54.809 3.4133 54.6736 3.41602 54.536V5.64902C3.42103 5.08794 3.64741 4.55153 4.04595 4.15656C4.44449 3.76158 4.98291 3.54 5.54401 3.54002H46.337C46.614 3.54002 46.8882 3.59459 47.1441 3.70057C47.4 3.80656 47.6324 3.96191 47.8283 4.15774C48.0241 4.35358 48.1795 4.58607 48.2855 4.84195C48.3915 5.09782 48.446 5.37206 48.446 5.64902L48.37 54.536Z" fill="#4D4D4F"/>
</svg>
