<svg width="16" height="20" viewBox="0 0 16 20" fill="none" xmlns="http://www.w3.org/2000/svg">
<path fill-rule="evenodd" clip-rule="evenodd" d="M8.14152 2.23086C7.12704 2.23086 6.30463 3.05077 6.30463 4.06216V5.0595H4.77643V4.06216C4.77643 2.20933 6.28304 0.707314 8.14152 0.707314C10 0.707314 11.5066 2.20933 11.5066 4.06217V5.0595H9.97841V4.06217C9.97841 3.05077 9.15601 2.23086 8.14152 2.23086ZM12.6621 6.58308H3.22004C2.68205 6.58308 2.23678 7.00011 2.20323 7.53542L1.80149 13.9436C1.67319 15.9902 3.30352 17.7203 5.36035 17.7203H10.5218C12.5786 17.7203 14.209 15.9902 14.0807 13.9436L13.6789 7.53542C13.6454 7.00011 13.2001 6.58308 12.6621 6.58308ZM3.22004 5.05953C1.87506 5.05953 0.761899 6.10211 0.678002 7.44038L0.276267 13.8486C0.0929791 16.7723 2.42202 19.2439 5.36035 19.2439H10.5218C13.4601 19.2439 15.7892 16.7723 15.6059 13.8486L15.2042 7.44038C15.1203 6.10211 14.0071 5.05953 12.6621 5.05953H3.22004ZM9.97814 8.45042C9.97814 9.46182 9.15574 10.2817 8.14125 10.2817C7.12676 10.2817 6.30436 9.46182 6.30436 8.45042L6.30436 8.25095C6.30436 7.83024 5.96226 7.48918 5.54026 7.48918C5.11826 7.48918 4.77616 7.83024 4.77616 8.25095V8.45042C4.77616 10.3033 6.28276 11.8053 8.14125 11.8053C9.99974 11.8053 11.5063 10.3033 11.5063 8.45042V8.25095C11.5063 7.83024 11.1642 7.48918 10.7422 7.48918C10.3202 7.48918 9.97814 7.83024 9.97814 8.25095V8.45042Z" fill="#333333"/>
</svg>
